<?xml version="1.0" standalone="no"?>
<!DOCTYPE svg PUBLIC "-//W3C//DTD SVG 1.1//EN" "http://www.w3.org/Graphics/SVG/1.1/DTD/svg11.dtd">
<svg width="100%" height="100%" viewBox="0 0 135 40" version="1.1" xmlns="http://www.w3.org/2000/svg" xmlns:xlink="http://www.w3.org/1999/xlink" xml:space="preserve" style="fill-rule:evenodd;clip-rule:evenodd;stroke-linejoin:round;stroke-miterlimit:1.41421;">
    <g>
        <path d="M130.197,40l-125.468,0c-2.608,0 -4.729,-2.127 -4.729,-4.733l0,-30.541c0,-2.605 2.121,-4.726 4.729,-4.726l125.468,0c2.606,0 4.803,2.121 4.803,4.726l0,30.541c0,2.606 -2.197,4.733 -4.803,4.733Z" style="fill:#b2b4b6;fill-rule:nonzero;"/>
        <path d="M134.032,35.268c0,2.116 -1.714,3.83 -3.834,3.83l-125.469,0c-2.12,0 -3.839,-1.714 -3.839,-3.83l0,-30.542c0,-2.116 1.719,-3.835 3.839,-3.835l125.468,0c2.121,0 3.834,1.719 3.834,3.835l0,30.542l0.001,0Z" style="fill:#030404;fill-rule:nonzero;"/>
        <path d="M30.127,19.784c-0.029,-3.223 2.639,-4.791 2.761,-4.864c-1.511,-2.203 -3.853,-2.505 -4.676,-2.528c-1.967,-0.206 -3.874,1.177 -4.877,1.177c-1.021,0 -2.565,-1.156 -4.227,-1.122c-2.14,0.033 -4.142,1.272 -5.24,3.196c-2.266,3.922 -0.576,9.688 1.594,12.858c1.086,1.553 2.355,3.288 4.016,3.226c1.625,-0.067 2.232,-1.036 4.193,-1.036c1.944,0 2.513,1.036 4.207,0.997c1.744,-0.028 2.843,-1.56 3.891,-3.127c1.254,-1.78 1.758,-3.533 1.778,-3.623c-0.04,-0.014 -3.386,-1.29 -3.42,-5.154Z" style="fill:#fff;fill-rule:nonzero;"/>
        <path d="M26.927,10.307c0.874,-1.094 1.472,-2.58 1.306,-4.09c-1.265,0.056 -2.847,0.875 -3.758,1.945c-0.806,0.942 -1.526,2.486 -1.34,3.938c1.421,0.105 2.88,-0.717 3.792,-1.793Z" style="fill:#fff;fill-rule:nonzero;"/>
        <path d="M49.755,25.956l-1.126,-3.475c-0.118,-0.356 -0.342,-1.191 -0.671,-2.507l-0.04,0c-0.131,0.566 -0.342,1.401 -0.631,2.507l-1.106,3.475l3.574,0ZM53.645,31.504l-2.271,0l-1.244,-3.909l-4.324,0l-1.185,3.909l-2.211,0l4.284,-13.307l2.646,0l4.305,13.307Z" style="fill:#fff;fill-rule:nonzero;"/>
        <path d="M62.49,26.666c0,-0.933 -0.211,-1.704 -0.632,-2.309c-0.461,-0.632 -1.08,-0.948 -1.856,-0.948c-0.526,0 -1.004,0.175 -1.431,0.523c-0.428,0.35 -0.708,0.807 -0.84,1.373c-0.065,0.264 -0.098,0.481 -0.098,0.651l0,1.599c0,0.698 0.214,1.287 0.641,1.768c0.428,0.48 0.984,0.72 1.669,0.72c0.803,0 1.428,-0.309 1.875,-0.927c0.448,-0.619 0.672,-1.436 0.672,-2.45ZM64.662,26.588c0,1.632 -0.441,2.922 -1.323,3.869c-0.79,0.843 -1.771,1.264 -2.942,1.264c-1.264,0 -2.172,-0.454 -2.725,-1.362l-0.039,0l0,5.055l-2.132,0l0,-10.346c0,-1.027 -0.027,-2.079 -0.08,-3.159l1.876,0l0.119,1.52l0.039,0c0.711,-1.145 1.79,-1.718 3.238,-1.718c1.132,0 2.077,0.448 2.833,1.342c0.757,0.897 1.136,2.074 1.136,3.535Z" style="fill:#fff;fill-rule:nonzero;"/>
        <path d="M73.527,26.666c0,-0.933 -0.211,-1.704 -0.633,-2.309c-0.461,-0.632 -1.078,-0.948 -1.855,-0.948c-0.528,0 -1.004,0.175 -1.432,0.523c-0.428,0.35 -0.707,0.807 -0.838,1.373c-0.066,0.264 -0.099,0.481 -0.099,0.651l0,1.599c0,0.698 0.214,1.287 0.64,1.768c0.428,0.48 0.984,0.72 1.67,0.72c0.803,0 1.428,-0.309 1.875,-0.927c0.447,-0.619 0.672,-1.436 0.672,-2.45ZM75.699,26.588c0,1.632 -0.442,2.922 -1.324,3.869c-0.79,0.843 -1.77,1.264 -2.942,1.264c-1.264,0 -2.172,-0.454 -2.724,-1.362l-0.039,0l0,5.055l-2.132,0l0,-10.346c0,-1.027 -0.027,-2.079 -0.079,-3.159l1.875,0l0.119,1.52l0.039,0c0.711,-1.145 1.789,-1.718 3.238,-1.718c1.131,0 2.076,0.448 2.834,1.342c0.756,0.897 1.135,2.074 1.135,3.535Z" style="fill:#fff;fill-rule:nonzero;"/>
        <path d="M88.039,27.773c0,1.132 -0.393,2.053 -1.182,2.764c-0.867,0.777 -2.074,1.165 -3.625,1.165c-1.432,0 -2.58,-0.277 -3.449,-0.829l0.494,-1.778c0.935,0.567 1.963,0.85 3.082,0.85c0.803,0 1.428,-0.182 1.877,-0.544c0.447,-0.362 0.67,-0.848 0.67,-1.454c0,-0.54 -0.184,-0.995 -0.553,-1.365c-0.367,-0.369 -0.98,-0.711 -1.836,-1.029c-2.33,-0.869 -3.494,-2.141 -3.494,-3.816c0,-1.094 0.408,-1.991 1.225,-2.69c0.814,-0.698 1.9,-1.048 3.257,-1.048c1.211,0 2.217,0.211 3.02,0.632l-0.533,1.738c-0.75,-0.408 -1.598,-0.613 -2.547,-0.613c-0.75,0 -1.336,0.185 -1.756,0.554c-0.355,0.329 -0.533,0.73 -0.533,1.204c0,0.526 0.203,0.961 0.611,1.303c0.356,0.316 1,0.658 1.936,1.027c1.144,0.461 1.986,1 2.527,1.618c0.539,0.62 0.809,1.39 0.809,2.311Z" style="fill:#fff;fill-rule:nonzero;"/>
        <path d="M95.087,23.508l-2.349,0l0,4.659c0,1.185 0.414,1.778 1.244,1.778c0.381,0 0.697,-0.033 0.947,-0.099l0.059,1.619c-0.42,0.158 -0.973,0.237 -1.658,0.237c-0.842,0 -1.5,-0.257 -1.975,-0.77c-0.473,-0.514 -0.711,-1.376 -0.711,-2.587l0,-4.837l-1.4,0l0,-1.599l1.4,0l0,-1.758l2.094,-0.632l0,2.39l2.349,0l0,1.599Z" style="fill:#fff;fill-rule:nonzero;"/>
        <path d="M103.479,26.697c0,-0.885 -0.19,-1.644 -0.573,-2.278c-0.447,-0.765 -1.086,-1.148 -1.914,-1.148c-0.857,0 -1.508,0.383 -1.955,1.148c-0.383,0.634 -0.573,1.406 -0.573,2.318c0,0.885 0.19,1.643 0.573,2.276c0.461,0.766 1.106,1.149 1.936,1.149c0.814,0 1.453,-0.39 1.914,-1.168c0.394,-0.647 0.592,-1.413 0.592,-2.297ZM105.691,26.627c0,1.475 -0.421,2.686 -1.263,3.633c-0.883,0.975 -2.055,1.461 -3.516,1.461c-1.409,0 -2.53,-0.467 -3.366,-1.401c-0.836,-0.935 -1.253,-2.113 -1.253,-3.534c0,-1.488 0.429,-2.705 1.292,-3.653c0.862,-0.948 2.024,-1.422 3.485,-1.422c1.409,0 2.541,0.467 3.397,1.403c0.816,0.908 1.224,2.079 1.224,3.513Z" style="fill:#fff;fill-rule:nonzero;"/>
        <path d="M112.621,23.784c-0.211,-0.039 -0.435,-0.059 -0.672,-0.059c-0.75,0 -1.33,0.283 -1.738,0.85c-0.356,0.5 -0.533,1.132 -0.533,1.894l0,5.035l-2.131,0l0.019,-6.574c0,-1.106 -0.027,-2.113 -0.08,-3.021l1.858,0l0.078,1.836l0.058,0c0.225,-0.631 0.581,-1.139 1.067,-1.52c0.474,-0.343 0.988,-0.514 1.541,-0.514c0.197,0 0.375,0.014 0.533,0.039l0,2.034Z" style="fill:#fff;fill-rule:nonzero;"/>
        <path d="M120.123,25.7c0.014,-0.632 -0.125,-1.178 -0.414,-1.639c-0.369,-0.593 -0.936,-0.889 -1.699,-0.889c-0.697,0 -1.264,0.289 -1.697,0.869c-0.356,0.461 -0.567,1.014 -0.631,1.659l4.441,0ZM122.156,26.252c0,0.382 -0.025,0.705 -0.078,0.967l-6.396,0c0.025,0.948 0.334,1.673 0.927,2.173c0.539,0.447 1.237,0.671 2.092,0.671c0.947,0 1.811,-0.151 2.588,-0.454l0.334,1.48c-0.908,0.396 -1.98,0.593 -3.217,0.593c-1.488,0 -2.656,-0.437 -3.506,-1.313c-0.847,-0.875 -1.273,-2.05 -1.273,-3.525c0,-1.447 0.394,-2.652 1.186,-3.613c0.828,-1.026 1.947,-1.539 3.355,-1.539c1.383,0 2.43,0.513 3.141,1.539c0.564,0.816 0.847,1.824 0.847,3.021Z" style="fill:#fff;fill-rule:nonzero;"/>
        <path d="M47.944,10.039c0,-0.764 -0.202,-1.349 -0.606,-1.756c-0.404,-0.408 -0.994,-0.611 -1.771,-0.611c-0.33,0 -0.611,0.022 -0.843,0.068l0,4.888c0.129,0.02 0.365,0.03 0.708,0.03c0.801,0 1.421,-0.223 1.857,-0.67c0.437,-0.446 0.655,-1.096 0.655,-1.949ZM49.05,10.009c0,1.177 -0.353,2.063 -1.058,2.658c-0.653,0.55 -1.581,0.825 -2.783,0.825c-0.596,0 -1.106,-0.026 -1.533,-0.078l0,-6.431c0.556,-0.09 1.157,-0.136 1.805,-0.136c1.144,0 2.007,0.249 2.589,0.747c0.653,0.563 0.98,1.368 0.98,2.415Z" style="fill:#fff;fill-rule:nonzero;"/>
        <path d="M53.821,11.072c0,-0.435 -0.093,-0.808 -0.281,-1.119c-0.22,-0.376 -0.533,-0.564 -0.94,-0.564c-0.421,0 -0.742,0.188 -0.961,0.564c-0.188,0.311 -0.282,0.691 -0.282,1.138c0,0.435 0.094,0.807 0.282,1.119c0.226,0.376 0.543,0.564 0.951,0.564c0.4,0 0.714,-0.192 0.94,-0.574c0.195,-0.318 0.291,-0.694 0.291,-1.128ZM54.908,11.038c0,0.724 -0.207,1.319 -0.621,1.784c-0.433,0.479 -1.009,0.718 -1.726,0.718c-0.693,0 -1.244,-0.229 -1.655,-0.688c-0.41,-0.459 -0.615,-1.039 -0.615,-1.737c0,-0.73 0.211,-1.328 0.635,-1.794c0.424,-0.466 0.994,-0.698 1.712,-0.698c0.692,0 1.248,0.229 1.669,0.688c0.4,0.446 0.601,1.022 0.601,1.727Z" style="fill:#fff;fill-rule:nonzero;"/>
        <path d="M62.765,8.719l-1.475,4.715l-0.96,0l-0.611,-2.047c-0.155,-0.511 -0.281,-1.019 -0.379,-1.523l-0.019,0c-0.09,0.517 -0.216,1.025 -0.379,1.523l-0.649,2.047l-0.971,0l-1.386,-4.715l1.077,0l0.533,2.241c0.129,0.53 0.235,1.035 0.32,1.513l0.019,0c0.078,-0.394 0.207,-0.895 0.388,-1.503l0.669,-2.251l0.854,0l0.641,2.202c0.155,0.537 0.281,1.055 0.377,1.552l0.03,0c0.071,-0.485 0.178,-1.002 0.32,-1.552l0.572,-2.202l1.029,0Z" style="fill:#fff;fill-rule:nonzero;"/>
        <path d="M68.197,13.434l-1.048,0l0,-2.7c0,-0.832 -0.316,-1.248 -0.95,-1.248c-0.31,0 -0.562,0.114 -0.757,0.343c-0.193,0.229 -0.291,0.499 -0.291,0.808l0,2.797l-1.048,0l0,-3.366c0,-0.414 -0.012,-0.863 -0.038,-1.349l0.921,0l0.049,0.737l0.029,0c0.122,-0.228 0.304,-0.418 0.543,-0.569c0.285,-0.176 0.602,-0.264 0.951,-0.264c0.44,0 0.805,0.142 1.096,0.426c0.363,0.349 0.543,0.87 0.543,1.562l0,2.823Z" style="fill:#fff;fill-rule:nonzero;"/>
        <rect x="70.041" y="6.556" width="1.046" height="6.878" style="fill:#fff;fill-rule:nonzero;"/>
        <path d="M76.169,11.072c0,-0.435 -0.093,-0.808 -0.281,-1.119c-0.219,-0.376 -0.533,-0.564 -0.939,-0.564c-0.422,0 -0.742,0.188 -0.961,0.564c-0.188,0.311 -0.281,0.691 -0.281,1.138c0,0.435 0.093,0.807 0.281,1.119c0.226,0.376 0.543,0.564 0.951,0.564c0.4,0 0.713,-0.192 0.939,-0.574c0.196,-0.318 0.291,-0.694 0.291,-1.128ZM77.257,11.038c0,0.724 -0.207,1.319 -0.621,1.784c-0.433,0.479 -1.009,0.718 -1.726,0.718c-0.694,0 -1.244,-0.229 -1.655,-0.688c-0.41,-0.459 -0.615,-1.039 -0.615,-1.737c0,-0.73 0.211,-1.328 0.635,-1.794c0.424,-0.466 0.994,-0.698 1.711,-0.698c0.693,0 1.248,0.229 1.67,0.688c0.4,0.446 0.601,1.022 0.601,1.727Z" style="fill:#fff;fill-rule:nonzero;"/>
        <path d="M81.242,11.813l0,-0.727c-1.157,-0.019 -1.735,0.298 -1.735,0.951c0,0.246 0.067,0.43 0.202,0.553c0.134,0.122 0.306,0.184 0.511,0.184c0.231,0 0.446,-0.073 0.641,-0.218c0.197,-0.146 0.318,-0.331 0.363,-0.558c0.012,-0.052 0.018,-0.113 0.018,-0.185ZM82.33,13.434l-0.942,0l-0.078,-0.543l-0.029,0c-0.322,0.433 -0.781,0.649 -1.377,0.649c-0.445,0 -0.805,-0.142 -1.076,-0.427c-0.246,-0.258 -0.369,-0.578 -0.369,-0.96c0,-0.575 0.24,-1.015 0.722,-1.319c0.483,-0.304 1.16,-0.453 2.033,-0.446l0,-0.088c0,-0.62 -0.326,-0.931 -0.978,-0.931c-0.465,0 -0.875,0.117 -1.229,0.349l-0.213,-0.688c0.438,-0.272 0.979,-0.407 1.618,-0.407c1.232,0 1.849,0.649 1.849,1.949l0,1.737c0,0.471 0.024,0.847 0.069,1.125Z" style="fill:#fff;fill-rule:nonzero;"/>
        <path d="M87.199,11.445l0,-0.786c0,-0.136 -0.01,-0.245 -0.03,-0.329c-0.058,-0.252 -0.185,-0.464 -0.378,-0.636c-0.196,-0.171 -0.43,-0.257 -0.702,-0.257c-0.39,0 -0.697,0.155 -0.921,0.466c-0.223,0.31 -0.336,0.708 -0.336,1.193c0,0.465 0.107,0.844 0.322,1.135c0.226,0.31 0.533,0.465 0.916,0.465c0.344,0 0.619,-0.129 0.828,-0.387c0.201,-0.24 0.301,-0.528 0.301,-0.864ZM88.285,13.434l-0.93,0l-0.049,-0.757l-0.029,0c-0.297,0.575 -0.803,0.863 -1.514,0.863c-0.568,0 -1.041,-0.223 -1.416,-0.669c-0.375,-0.446 -0.562,-1.025 -0.562,-1.736c0,-0.763 0.203,-1.381 0.611,-1.853c0.395,-0.44 0.879,-0.659 1.455,-0.659c0.633,0 1.076,0.213 1.328,0.64l0.02,0l0,-2.707l1.049,0l0,5.607c0,0.459 0.011,0.882 0.037,1.271Z" style="fill:#fff;fill-rule:nonzero;"/>
        <path d="M96.162,11.072c0,-0.435 -0.094,-0.808 -0.282,-1.119c-0.22,-0.376 -0.533,-0.564 -0.941,-0.564c-0.42,0 -0.74,0.188 -0.961,0.564c-0.187,0.311 -0.281,0.691 -0.281,1.138c0,0.435 0.094,0.807 0.281,1.119c0.227,0.376 0.543,0.564 0.951,0.564c0.401,0 0.715,-0.192 0.942,-0.574c0.193,-0.318 0.291,-0.694 0.291,-1.128ZM97.248,11.038c0,0.724 -0.207,1.319 -0.621,1.784c-0.434,0.479 -1.008,0.718 -1.727,0.718c-0.691,0 -1.242,-0.229 -1.654,-0.688c-0.411,-0.459 -0.616,-1.039 -0.616,-1.737c0,-0.73 0.211,-1.328 0.635,-1.794c0.424,-0.466 0.994,-0.698 1.713,-0.698c0.691,0 1.248,0.229 1.668,0.688c0.4,0.446 0.602,1.022 0.602,1.727Z" style="fill:#fff;fill-rule:nonzero;"/>
        <path d="M102.883,13.434l-1.047,0l0,-2.7c0,-0.832 -0.316,-1.248 -0.951,-1.248c-0.311,0 -0.563,0.114 -0.756,0.343c-0.194,0.229 -0.292,0.499 -0.292,0.808l0,2.797l-1.048,0l0,-3.366c0,-0.414 -0.012,-0.863 -0.037,-1.349l0.919,0l0.049,0.737l0.03,0c0.123,-0.228 0.305,-0.418 0.543,-0.569c0.285,-0.176 0.602,-0.264 0.951,-0.264c0.44,0 0.805,0.142 1.096,0.426c0.363,0.349 0.543,0.87 0.543,1.562l0,2.823Z" style="fill:#fff;fill-rule:nonzero;"/>
        <path d="M109.936,9.505l-1.155,0l0,2.289c0,0.582 0.205,0.873 0.612,0.873c0.187,0 0.343,-0.016 0.466,-0.048l0.028,0.795c-0.207,0.078 -0.479,0.117 -0.815,0.117c-0.414,0 -0.736,-0.127 -0.968,-0.379c-0.235,-0.252 -0.35,-0.675 -0.35,-1.27l0,-2.377l-0.69,0l0,-0.786l0.69,0l0,-0.863l1.027,-0.31l0,1.173l1.155,0l0,0.786Z" style="fill:#fff;fill-rule:nonzero;"/>
        <path d="M115.484,13.434l-1.048,0l0,-2.681c0,-0.845 -0.317,-1.267 -0.95,-1.267c-0.486,0 -0.818,0.245 -1,0.735c-0.031,0.103 -0.048,0.229 -0.048,0.378l0,2.835l-1.047,0l0,-6.878l1.047,0l0,2.841l0.019,0c0.33,-0.516 0.803,-0.774 1.416,-0.774c0.434,0 0.793,0.142 1.078,0.426c0.356,0.356 0.533,0.883 0.533,1.581l0,2.804Z" style="fill:#fff;fill-rule:nonzero;"/>
        <path d="M120.207,10.582c0.008,-0.311 -0.061,-0.579 -0.203,-0.805c-0.182,-0.291 -0.459,-0.437 -0.834,-0.437c-0.342,0 -0.621,0.142 -0.834,0.427c-0.174,0.227 -0.277,0.498 -0.311,0.815l2.182,0ZM121.207,10.853c0,0.188 -0.014,0.346 -0.039,0.476l-3.143,0c0.014,0.465 0.164,0.821 0.455,1.066c0.266,0.221 0.61,0.331 1.03,0.331c0.465,0 0.888,-0.075 1.271,-0.224l0.164,0.728c-0.447,0.194 -0.972,0.291 -1.582,0.291c-0.73,0 -1.304,-0.215 -1.72,-0.645c-0.418,-0.43 -0.625,-1.007 -0.625,-1.732c0,-0.711 0.193,-1.303 0.582,-1.775c0.406,-0.504 0.955,-0.756 1.648,-0.756c0.678,0 1.193,0.252 1.541,0.756c0.279,0.402 0.418,0.896 0.418,1.484Z" style="fill:#fff;fill-rule:nonzero;"/>
    </g>
</svg>
